<?xml version="1.0" encoding="UTF-8"?>
<svg version="1.1" xmlns="http://www.w3.org/2000/svg" width="865" height="809">
<path d="M0 0 C4.79567444 4.00111708 9.32200079 8.17973061 13.72618103 12.60592651 C14.68457841 13.56304226 14.68457841 13.56304226 15.66233736 14.53949368 C17.7850012 16.66052125 19.90409063 18.78508297 22.02319336 20.90966797 C23.55108514 22.43784205 25.07919761 23.96579552 26.60751343 25.49354553 C30.74350639 29.62925218 34.87641397 33.76802964 39.00876689 37.90737295 C43.3324661 42.23733336 47.65900692 46.56445251 51.98524475 50.89187622 C60.17164895 59.08138558 68.35550118 67.27344021 76.53843552 75.46641648 C85.85687809 84.7960455 95.17816829 94.12282722 104.49969661 103.44937301 C123.66963057 122.62975289 142.83599269 141.81369866 162 161 C166.79567444 156.99888292 171.32200079 152.82026939 175.72618103 148.39407349 C176.36511262 147.75599632 177.00404421 147.11791916 177.66233736 146.46050632 C179.7850012 144.33947875 181.90409063 142.21491703 184.02319336 140.09033203 C185.55108514 138.56215795 187.07919761 137.03420448 188.60751343 135.50645447 C192.74350639 131.37074782 196.87641397 127.23197036 201.00876689 123.09262705 C205.3324661 118.76266664 209.65900692 114.43554749 213.98524475 110.10812378 C222.17164895 101.91861442 230.35550118 93.72655979 238.53843552 85.53358352 C247.85687809 76.2039545 257.17816829 66.87717278 266.49969661 57.55062699 C285.66963057 38.37024711 304.83599269 19.18630134 324 0 C325.11905776 0.95284794 326.2372159 1.90675249 327.35499573 2.86109924 C327.97776681 3.39219079 328.60053789 3.92328234 329.24218082 4.47046757 C331.36840052 6.32055661 333.3644164 8.26753207 335.33984375 10.27734375 C336.09330078 11.03853516 336.84675781 11.79972656 337.62304688 12.58398438 C339.16214233 14.14905613 340.701205 15.71416013 342.24023438 17.27929688 C343.37235352 18.42301758 343.37235352 18.42301758 344.52734375 19.58984375 C345.52882446 20.60872681 345.52882446 20.60872681 346.55053711 21.64819336 C348.43789141 23.4603018 350.3377312 25.14312844 352.32951355 26.83248901 C358.55826407 32.27277775 364.3338471 38.18591879 370.17724609 44.03198242 C371.49516348 45.34690344 372.81328428 46.66162062 374.1315918 47.97615051 C377.69141659 51.52718614 381.24803409 55.08141702 384.80378675 58.63652968 C387.0264752 60.85850547 389.24987492 63.07976695 391.47352982 65.30077553 C399.23308842 73.05110214 406.99007925 80.80398795 414.74462891 88.55932617 C421.97242207 95.78772164 429.20579146 103.01050375 436.44176042 110.23071402 C442.66032807 116.4362207 448.87504913 122.6455618 455.0867697 128.85792238 C458.79446533 132.56587313 462.50370223 136.27224949 466.21680832 139.97478294 C469.70307732 143.4513937 473.18454348 146.93274229 476.66233826 150.41782951 C477.94012509 151.69666456 479.21962766 152.97378787 480.50094986 154.24908066 C482.24734306 155.98778556 483.98748287 157.73251748 485.72616577 159.47892761 C486.2362702 159.98388848 486.74637463 160.48884935 487.27193677 161.00911206 C491.67824771 165.45892385 493.2465341 168.3469879 493.26564884 174.62357712 C493.27394783 175.77612826 493.28224682 176.9286794 493.29079729 178.11615634 C493.28974645 179.38306095 493.2886956 180.64996557 493.28761292 181.95526123 C493.29349673 183.31419988 493.3002358 184.67313506 493.30775779 186.03206563 C493.32584172 189.77011338 493.33135311 193.5080906 493.33474457 197.24617672 C493.34049996 201.27631462 493.35762539 205.3064072 493.37309265 209.33651733 C493.4078517 219.07022092 493.4234314 228.80392078 493.43721595 238.53767288 C493.44417669 243.12113898 493.45333354 247.70460056 493.46232414 252.28806305 C493.49152732 267.52336822 493.51632151 282.75866896 493.52694798 297.99399948 C493.52798402 299.45673758 493.52798402 299.45673758 493.52904099 300.94902594 C493.529733 301.92652271 493.53042502 302.90401947 493.531138 303.91113734 C493.53255 305.89193011 493.53397081 307.87272287 493.53540039 309.85351562 C493.53645815 311.3273292 493.53645815 311.3273292 493.53753727 312.83091679 C493.54978829 328.75242492 493.59258472 344.67369498 493.64834059 360.59510431 C493.70511426 376.93977585 493.73559764 393.284327 493.73996013 409.62909818 C493.74304277 418.80679615 493.75755574 427.98416336 493.80124092 437.16176605 C493.83833491 444.97664996 493.85152739 452.79111355 493.83353604 460.60607287 C493.82508019 464.59313992 493.82793235 468.5793486 493.86135483 472.56630325 C493.89170049 476.21855865 493.88955664 479.86932074 493.86186682 483.52158394 C493.85547903 485.46407661 493.8835184 487.40658899 493.91289335 489.34887004 C493.83880958 495.0281 493.66021954 498.98465076 489.87879753 503.40168381 C488.60954492 504.62615331 487.31661106 505.82660192 486 507 C484.87398902 508.15526223 483.75384086 509.31627038 482.6398859 510.48316193 C481.45711884 511.67005121 480.27169875 512.85430104 479.08399963 514.03625488 C478.42465028 514.69645866 477.76530093 515.35666244 477.0859713 516.03687239 C474.89895093 518.22552622 472.70840106 520.41061131 470.51782227 522.59570312 C468.94024019 524.17300284 467.36287885 525.75052335 465.78572083 527.32824707 C461.51991222 531.59434174 457.25103465 535.8573533 452.98158765 540.11980629 C448.51416429 544.58096447 444.04958602 549.04496808 439.58470154 553.50866699 C432.0955951 560.99502176 424.60474693 568.4796302 417.11254883 575.96289062 C409.39880565 583.66744146 401.6861234 591.37305181 393.97485352 599.08007812 C393.49877329 599.55589563 393.02269306 600.03171313 392.53218616 600.52194935 C390.14361196 602.90921843 387.75505847 605.29650823 385.36651528 607.68380833 C365.58088697 627.45908593 345.79159989 647.23069905 326 667 C323.23293667 665.7340267 321.18765104 664.43715525 319.04026413 662.28635979 C318.48192343 661.73200119 317.92358274 661.17764259 317.34832263 660.60648525 C316.74520416 659.9975411 316.1420857 659.38859695 315.52069092 658.76119995 C314.87207195 658.11428983 314.22345297 657.46737971 313.55517888 656.80086625 C311.37933324 654.62831926 309.21072075 652.44869286 307.04199219 650.26904297 C305.48520126 648.71168801 303.92797003 647.1547731 302.37033081 645.5982666 C298.13893942 641.36745004 293.91375139 637.13048659 289.68962765 632.89241552 C285.27559712 628.46589932 280.85591838 624.0450301 276.43682861 619.62356567 C269.01911481 612.20033797 261.60490296 604.77362583 254.19335938 597.34423828 C246.55963613 589.69215529 238.92381385 582.04217697 231.28515625 574.39501953 C230.81426184 573.92359968 230.34336744 573.45217982 229.8582035 572.96647452 C227.49583721 570.60149814 225.1334273 568.23656533 222.77100134 565.87164855 C203.17434397 546.25407484 183.58483414 526.62937672 164 507 C161.23204222 508.26562933 159.19318751 509.55908025 157.05143738 511.71643353 C156.49556348 512.27140882 155.93968958 512.82638412 155.36697102 513.39817685 C154.76658103 514.00780312 154.16619104 514.61742938 153.54760742 515.24552917 C152.90181071 515.89314486 152.256014 516.54076055 151.5906477 517.20800096 C149.4241526 519.38292128 147.26489561 521.5648895 145.10546875 523.74682617 C143.55520468 525.30583799 142.00446258 526.86437458 140.45327759 528.42247009 C137.11227904 531.77996863 133.77426403 535.14039616 130.43838501 538.50298119 C125.16771041 543.81495016 119.88786668 549.11773944 114.60620117 554.41877747 C107.20622378 561.84715621 99.8079664 569.27724064 92.41308594 576.71069336 C91.94388005 577.1823418 91.47467417 577.65399024 90.99124992 578.13993106 C83.3787292 585.79250465 75.77213596 593.45095074 68.16681468 601.11067828 C60.36059433 608.97226181 52.54465951 616.82411263 44.72087955 624.66822225 C39.4632769 629.94050801 34.21697273 635.22371199 28.9785614 640.51506269 C25.72386073 643.7974055 22.45882752 647.06931188 19.19068527 650.33826637 C17.67214584 651.86139354 16.15793416 653.38884895 14.64830399 654.92080688 C12.5942839 657.00397997 10.52561434 659.07138473 8.45239258 661.13542175 C7.85200259 661.75174019 7.25161261 662.36805862 6.63302898 663.00305337 C4.94856262 664.6610899 4.94856262 664.6610899 2 667 C-1.17196514 666.70177009 -2.82107787 665.55353937 -5.0322361 663.3397007 C-5.60676037 662.77176627 -6.18128465 662.20383184 -6.77321875 661.61868727 C-7.39442772 660.9894219 -8.01563668 660.36015653 -8.65567017 659.71182251 C-9.32329577 659.04746575 -9.99092137 658.38310899 -10.67877805 657.6986202 C-12.92147057 655.46322983 -15.15325004 653.21725063 -17.38525391 650.97119141 C-18.98785284 649.36938304 -20.5911046 647.76822758 -22.19496155 646.16767883 C-26.55487497 641.81290897 -30.90537566 637.44884403 -35.25415468 633.0829587 C-39.80055347 628.52154939 -44.35503125 623.96822075 -48.90853882 619.41390991 C-56.55505878 611.76369476 -64.19595644 604.10790823 -71.83300781 596.44824219 C-79.69312532 588.56486634 -87.55777464 580.68605067 -95.42773438 572.8125 C-95.91243295 572.32757865 -96.39713153 571.84265731 -96.89651795 571.34304138 C-97.87293681 570.36617991 -98.84935597 569.38931874 -99.82577541 568.41245785 C-100.30741955 567.93059414 -100.78906369 567.44873043 -101.28530312 566.95226479 C-101.76572151 566.4716304 -102.24613991 565.99099602 -102.74111644 565.49579696 C-110.6899371 557.54305231 -118.63436721 549.58592271 -126.5786128 541.62860823 C-129.29327828 538.90984035 -132.00853286 536.19166186 -134.72386551 533.47356033 C-138.98621919 529.20631883 -143.24590844 524.93643486 -147.50352287 520.66446495 C-149.06922782 519.09423137 -150.63578139 517.52484344 -152.2032299 515.95635033 C-154.33724894 513.82058959 -156.46817496 511.68179108 -158.59829712 509.54214478 C-159.53680273 508.60493888 -159.53680273 508.60493888 -160.49426806 507.64879954 C-161.06357684 507.07564961 -161.63288562 506.50249969 -162.21944618 505.91198158 C-162.71167376 505.41850751 -163.20390134 504.92503343 -163.71104491 504.41660559 C-166.76028411 501.06538775 -167.26252875 498.93636373 -167.34106827 494.54086208 C-167.37849306 492.82862301 -167.37849306 492.82862301 -167.4166739 491.08179325 C-167.43404029 489.82192901 -167.45140667 488.56206477 -167.46929932 487.26402283 C-167.49450798 485.91621728 -167.52048702 484.56842595 -167.54717231 483.22064883 C-167.61782385 479.50786676 -167.67547047 475.79498006 -167.73053885 472.08193815 C-167.77919699 468.89831349 -167.83499568 465.71482756 -167.89045146 462.53131526 C-168.41470432 432.24095112 -168.6975059 401.9468099 -168.92587662 371.65294552 C-168.95620779 367.70051056 -168.98712317 363.74808066 -169.01855469 359.7956543 C-169.02634224 358.81338525 -169.03412979 357.83111621 -169.04215333 356.81908143 C-169.17138523 340.97750122 -169.42666834 325.14046096 -169.73146608 309.30139308 C-170.04252166 292.99975503 -170.22150252 276.70045704 -170.28034949 260.39593893 C-170.31689721 251.25611384 -170.41122212 242.12499615 -170.65595245 232.98817253 C-172.27334785 170.74445295 -172.27334785 170.74445295 -157.22761416 153.4902547 C-151.09865584 147.08523301 -144.26408164 141.67793255 -136.86196518 136.82578373 C-133.17177379 134.3162396 -130.47242971 131.35621038 -127.62451565 127.94129509 C-125.34775173 125.22056376 -122.88522638 122.76246391 -120.37477112 120.2545166 C-119.85426255 119.73315361 -119.33375398 119.21179061 -118.79747242 118.67462873 C-117.08031063 116.95584062 -115.35963822 115.2406137 -113.63891602 113.52539062 C-112.39630498 112.2830621 -111.15391497 111.04051246 -109.91172791 109.79776001 C-106.55911221 106.44485885 -103.2034348 103.09503751 -99.84717679 99.74578285 C-96.33267379 96.23755526 -92.82102564 92.72647234 -89.30906677 89.21569824 C-82.66727018 82.57700266 -76.02292987 75.94085909 -69.37765974 69.3056407 C-61.80854808 61.74772847 -54.24229503 54.18695721 -46.67627442 46.62595081 C-31.12068298 31.08079589 -15.56152577 15.53921419 0 0 Z M-10.89800984 30.76892853 C-11.45539355 31.32922508 -12.01277726 31.88952164 -12.58705139 32.46679688 C-13.17593736 33.05482841 -13.76482332 33.64285995 -14.37155432 34.24871063 C-16.36085101 36.23634916 -18.34653281 38.22756119 -20.33227539 40.21875 C-21.7509094 41.63766583 -23.16976315 43.05636199 -24.58882141 44.47485352 C-28.45451825 48.3402622 -32.31711351 52.20875711 -36.17918324 56.07778931 C-40.21064921 60.1154858 -44.24492731 64.15037047 -48.27891541 68.18554688 C-55.9236507 75.83339638 -63.56583225 83.48379251 -71.20711273 91.13509369 C-79.90391842 99.84305775 -88.6035472 108.54819905 -97.30342114 117.25309753 C-115.20543679 135.1655796 -133.10388191 153.08162589 -151 171 C-150.0550036 172.11157875 -149.10869701 173.22204372 -148.16184998 174.33204651 C-147.37160258 175.25981321 -147.37160258 175.25981321 -146.56539059 176.20632267 C-144.43033796 178.65273798 -142.15902243 180.93518537 -139.84765625 183.21484375 C-139.38443466 183.67427872 -138.92121307 184.13371368 -138.44395447 184.60707092 C-136.49913834 186.53583973 -134.5483152 188.45848735 -132.59790039 190.3815918 C-131.1581422 191.80299374 -129.72161228 193.22760588 -128.28515625 194.65234375 C-127.43832275 195.48757568 -126.59148926 196.32280762 -125.71899414 197.18334961 C-123.72470959 199.24926151 -121.86178337 201.31339688 -120.00410461 203.49391174 C-115.31338851 208.86928225 -110.26305543 213.87712635 -105.21533203 218.9140625 C-104.14183774 219.98891446 -103.06855572 221.06397845 -101.99546814 222.13923645 C-99.10360349 225.03562815 -96.20862348 227.9288865 -93.31290293 230.82142258 C-90.27829641 233.85348552 -87.24614374 236.88800083 -84.21359253 239.92211914 C-79.12986776 245.00765784 -74.04404959 250.09109583 -68.95703125 255.17333984 C-63.06956923 261.05534022 -57.18574593 266.94096205 -51.30375969 272.82843781 C-46.24900601 277.88772036 -41.19231777 282.94506315 -36.13398826 288.00077057 C-33.11433022 291.01886721 -30.09535772 294.03764124 -27.07812881 297.0581665 C-24.24860594 299.89056549 -21.41667214 302.72053108 -18.58281136 305.54858971 C-17.54063913 306.58943381 -16.49932779 307.63114068 -15.45891762 308.67374611 C-14.04531726 310.09005537 -12.62836544 311.50301727 -11.21121216 312.91577148 C-10.4174222 313.70918442 -9.62363224 314.50259735 -8.80578804 315.3200531 C-7.28903915 317.11352254 -7.28903915 317.11352254 -6 317 C-6 221.3 -6 125.6 -6 27 C-8.13401798 27 -9.46834062 29.3449117 -10.89800984 30.76892853 Z M7 27 C7 122.7 7 218.4 7 317 C11.5435839 313.10549951 15.88043116 309.26350883 20.08079529 305.03945923 C20.93506209 304.18647407 20.93506209 304.18647407 21.8065868 303.31625688 C23.69431803 301.430159 25.57847761 299.54053498 27.46264648 297.65087891 C28.82305268 296.29019035 30.18367969 294.92972252 31.54450989 293.56945801 C35.22390609 289.89034787 38.90021814 286.20816998 42.57597232 282.52542162 C46.42320672 278.67192186 50.27328675 274.82126733 54.12306213 270.9703064 C61.40635998 263.68390461 68.68710565 256.3949582 75.9669314 249.10508764 C84.25758019 240.80324859 92.55107996 232.50426016 100.84481704 224.20550656 C117.89971247 207.14016797 134.95103549 190.07126367 152 173 C150.37568297 168.90950333 147.44298546 166.16684918 144.37535095 163.12811279 C143.79448323 162.54483066 143.21361551 161.96154852 142.61514574 161.36059117 C140.66604814 159.40585431 138.70987904 157.4583524 136.75366211 155.51074219 C135.35557005 154.11157733 133.95791102 152.71197966 132.56065369 151.3119812 C128.76374658 147.51022333 124.9606133 143.71475028 121.15621257 139.92049313 C117.18155567 135.95460918 113.21216105 131.98346483 109.24208069 128.01300049 C102.5764945 121.34835104 95.90704467 114.68758799 89.23510742 108.02929688 C81.50982718 100.31975834 73.78980231 92.60498932 66.07275575 84.88720965 C58.65988704 77.47373172 51.24417045 70.0631098 43.82684517 62.65409088 C40.66458226 59.49536799 37.50317867 56.33578865 34.34242058 53.17556 C30.62581168 49.4599518 26.90667667 45.74689082 23.18552589 42.03583145 C21.81601245 40.66925142 20.44735686 39.3018111 19.07959747 37.93347549 C17.22125365 36.07464486 15.35988986 34.21889431 13.49766541 32.36395264 C12.94942783 31.81416646 12.40119025 31.26438028 11.83633941 30.69793391 C9.76646419 28.14508453 9.76646419 28.14508453 7 27 Z M313.10199016 30.76892853 C312.54460645 31.32922508 311.98722274 31.88952164 311.41294861 32.46679688 C310.82406264 33.05482841 310.23517668 33.64285995 309.62844568 34.24871063 C307.63914899 36.23634916 305.65346719 38.22756119 303.66772461 40.21875 C302.2490906 41.63766583 300.83023685 43.05636199 299.41117859 44.47485352 C295.54548175 48.3402622 291.68288649 52.20875711 287.82081676 56.07778931 C283.78935079 60.1154858 279.75507269 64.15037047 275.72108459 68.18554688 C268.0763493 75.83339638 260.43416775 83.48379251 252.79288727 91.13509369 C244.09608158 99.84305775 235.3964528 108.54819905 226.69657886 117.25309753 C208.79456321 135.1655796 190.89611809 153.08162589 173 171 C174.62431703 175.09049667 177.55701454 177.83315082 180.62464905 180.87188721 C181.20551677 181.45516934 181.78638449 182.03845148 182.38485426 182.63940883 C184.33395186 184.59414569 186.29012096 186.5416476 188.24633789 188.48925781 C189.64442995 189.88842267 191.04208898 191.28802034 192.43934631 192.6880188 C196.23625342 196.48977667 200.0393867 200.28524972 203.84378743 204.07950687 C207.81844433 208.04539082 211.78783895 212.01653517 215.75791931 215.98699951 C222.4235055 222.65164896 229.09295533 229.31241201 235.76489258 235.97070312 C243.49017282 243.68024166 251.21019769 251.39501068 258.92724425 259.11279035 C266.34011296 266.52626828 273.75582955 273.9368902 281.17315483 281.34590912 C284.33541774 284.50463201 287.49682133 287.66421135 290.65757942 290.82444 C294.37418832 294.5400482 298.09332333 298.25310918 301.81447411 301.96416855 C303.18398755 303.33074858 304.55264314 304.6981889 305.92040253 306.06652451 C307.77874635 307.92535514 309.64011014 309.78110569 311.50233459 311.63604736 C312.05057217 312.18583354 312.59880975 312.73561972 313.16366059 313.30206609 C315.23353581 315.85491547 315.23353581 315.85491547 318 317 C318 221.3 318 125.6 318 27 C315.86598202 27 314.53165938 29.3449117 313.10199016 30.76892853 Z M331 27 C331 122.7 331 218.4 331 317 C335.5435839 313.10549951 339.88043116 309.26350883 344.08079529 305.03945923 C344.93506209 304.18647407 344.93506209 304.18647407 345.8065868 303.31625688 C347.69431803 301.430159 349.57847761 299.54053498 351.46264648 297.65087891 C352.82305268 296.29019035 354.18367969 294.92972252 355.54450989 293.56945801 C359.22390609 289.89034787 362.90021814 286.20816998 366.57597232 282.52542162 C370.42320672 278.67192186 374.27328675 274.82126733 378.12306213 270.9703064 C385.40635998 263.68390461 392.68710565 256.3949582 399.9669314 249.10508764 C408.25758019 240.80324859 416.55107996 232.50426016 424.84481704 224.20550656 C441.89971247 207.14016797 458.95103549 190.07126367 476 173 C474.37568297 168.90950333 471.44298546 166.16684918 468.37535095 163.12811279 C467.79448323 162.54483066 467.21361551 161.96154852 466.61514574 161.36059117 C464.66604814 159.40585431 462.70987904 157.4583524 460.75366211 155.51074219 C459.35557005 154.11157733 457.95791102 152.71197966 456.56065369 151.3119812 C452.76374658 147.51022333 448.9606133 143.71475028 445.15621257 139.92049313 C441.18155567 135.95460918 437.21216105 131.98346483 433.24208069 128.01300049 C426.5764945 121.34835104 419.90704467 114.68758799 413.23510742 108.02929688 C405.50982718 100.31975834 397.78980231 92.60498932 390.07275575 84.88720965 C382.65988704 77.47373172 375.24417045 70.0631098 367.82684517 62.65409088 C364.66458226 59.49536799 361.50317867 56.33578865 358.34242058 53.17556 C354.62581168 49.4599518 350.90667667 45.74689082 347.18552589 42.03583145 C345.81601245 40.66925142 344.44735686 39.3018111 343.07959747 37.93347549 C341.22125365 36.07464486 339.35988986 34.21889431 337.49766541 32.36395264 C336.94942783 31.81416646 336.40119025 31.26438028 335.83633941 30.69793391 C333.76646419 28.14508453 333.76646419 28.14508453 331 27 Z M-155 188 C-155 284.03 -155 380.06 -155 479 C-150.44292612 475.09393667 -146.09435579 471.23819007 -141.88124084 467.00149536 C-141.30764609 466.42875503 -140.73405134 465.85601471 -140.14307493 465.26591861 C-138.24152414 463.36600135 -136.34354516 461.46255743 -134.44555664 459.55908203 C-133.07529835 458.18854138 -131.70481926 456.81822146 -130.33413696 455.44810486 C-126.62788213 451.7421361 -122.92471153 448.0330994 -119.22209859 444.32349253 C-115.34683683 440.44196568 -111.46872971 436.56328381 -107.59092712 432.68429565 C-100.25450538 425.34476989 -92.9206358 418.00269946 -85.587686 410.65970504 C-77.23657874 402.29740778 -68.88262072 393.9379609 -60.52842534 385.57874894 C-43.34911589 368.38899615 -26.17337881 351.19567763 -9 334 C-12.82237345 329.43425961 -16.77301403 325.08199736 -20.99177551 320.88124084 C-21.56381027 320.30764609 -22.13584504 319.73405134 -22.72521418 319.14307493 C-24.62280184 317.24153145 -26.52390415 315.34354332 -28.42504883 313.44555664 C-29.79395898 312.07529013 -31.1626566 310.70481126 -32.53115845 309.33413696 C-36.23296479 305.62778677 -39.93790898 301.92458842 -43.64357591 298.22209859 C-47.52167036 294.34654041 -51.39731936 290.46853795 -55.27336121 286.59092712 C-61.77541416 280.08705749 -68.27956738 273.58529379 -74.78491211 267.0847168 C-82.31568121 259.55940309 -89.84282252 252.0304751 -97.3681162 244.4996863 C-103.828358 238.03491544 -110.29053526 231.57208413 -116.75435275 225.11088842 C-120.61574953 221.25105379 -124.47645994 217.39053915 -128.33542824 213.52827644 C-131.9569856 209.90384292 -135.58095645 206.28184045 -139.20685196 202.66174698 C-140.54089639 201.32903094 -141.87407924 199.99545186 -143.20636177 198.6609745 C-145.01633154 196.84829667 -146.82931333 195.03868817 -148.6431427 193.22987366 C-149.17697895 192.69380668 -149.71081521 192.15773971 -150.26082832 191.60542828 C-152.28584571 189.10903505 -152.28584571 189.10903505 -155 188 Z M151.10199016 192.76892853 C150.54460645 193.32922508 149.98722274 193.88952164 149.41294861 194.46679688 C148.82406264 195.05482841 148.23517668 195.64285995 147.62844568 196.24871063 C145.63914899 198.23634916 143.65346719 200.22756119 141.66772461 202.21875 C140.2490906 203.63766583 138.83023685 205.05636199 137.41117859 206.47485352 C133.54548175 210.3402622 129.68288649 214.20875711 125.82081676 218.07778931 C121.78935079 222.1154858 117.75507269 226.15037047 113.72108459 230.18554688 C106.0763493 237.83339638 98.43416775 245.48379251 90.79288727 253.13509369 C82.09608158 261.84305775 73.3964528 270.54819905 64.69657886 279.25309753 C46.79456321 297.1655796 28.89611809 315.08162589 11 333 C12.62431703 337.09049667 15.55701454 339.83315082 18.62464905 342.87188721 C19.20551677 343.45516934 19.78638449 344.03845148 20.38485426 344.63940883 C22.33395186 346.59414569 24.29012096 348.5416476 26.24633789 350.48925781 C27.64442995 351.88842267 29.04208898 353.28802034 30.43934631 354.6880188 C34.23625342 358.48977667 38.0393867 362.28524972 41.84378743 366.07950687 C45.81844433 370.04539082 49.78783895 374.01653517 53.75791931 377.98699951 C60.4235055 384.65164896 67.09295533 391.31241201 73.76489258 397.97070312 C81.49017282 405.68024166 89.21019769 413.39501068 96.92724425 421.11279035 C104.34011296 428.52626828 111.75582955 435.9368902 119.17315483 443.34590912 C122.33541774 446.50463201 125.49682133 449.66421135 128.65757942 452.82444 C132.37418832 456.5400482 136.09332333 460.25310918 139.81447411 463.96416855 C141.18398755 465.33074858 142.55264314 466.6981889 143.92040253 468.06652451 C145.77874635 469.92535514 147.64011014 471.78110569 149.50233459 473.63604736 C150.05057217 474.18583354 150.59880975 474.73561972 151.16366059 475.30206609 C153.23353581 477.85491547 153.23353581 477.85491547 156 479 C156 383.3 156 287.6 156 189 C153.86598202 189 152.53165938 191.3449117 151.10199016 192.76892853 Z M169 189 C169 284.7 169 380.4 169 479 C173.5435839 475.10549951 177.88043116 471.26350883 182.08079529 467.03945923 C182.93506209 466.18647407 182.93506209 466.18647407 183.8065868 465.31625688 C185.69431803 463.430159 187.57847761 461.54053498 189.46264648 459.65087891 C190.82305268 458.29019035 192.18367969 456.92972252 193.54450989 455.56945801 C197.22390609 451.89034787 200.90021814 448.20816998 204.57597232 444.52542162 C208.42320672 440.67192186 212.27328675 436.82126733 216.12306213 432.9703064 C223.40635998 425.68390461 230.68710565 418.3949582 237.9669314 411.10508764 C246.25758019 402.80324859 254.55107996 394.50426016 262.84481704 386.20550656 C279.89971247 369.14016797 296.95103549 352.07126367 314 335 C312.37568297 330.90950333 309.44298546 328.16684918 306.37535095 325.12811279 C305.79448323 324.54483066 305.21361551 323.96154852 304.61514574 323.36059117 C302.66604814 321.40585431 300.70987904 319.4583524 298.75366211 317.51074219 C297.35557005 316.11157733 295.95791102 314.71197966 294.56065369 313.3119812 C290.76374658 309.51022333 286.9606133 305.71475028 283.15621257 301.92049313 C279.18155567 297.95460918 275.21216105 293.98346483 271.24208069 290.01300049 C264.5764945 283.34835104 257.90704467 276.68758799 251.23510742 270.02929688 C243.50982718 262.31975834 235.78980231 254.60498932 228.07275575 246.88720965 C220.65988704 239.47373172 213.24417045 232.0631098 205.82684517 224.65409088 C202.66458226 221.49536799 199.50317867 218.33578865 196.34242058 215.17556 C192.62581168 211.4599518 188.90667667 207.74689082 185.18552589 204.03583145 C183.81601245 202.66925142 182.44735686 201.3018111 181.07959747 199.93347549 C179.22125365 198.07464486 177.35988986 196.21889431 175.49766541 194.36395264 C174.94942783 193.81416646 174.40119025 193.26438028 173.83633941 192.69793391 C171.76646419 190.14508453 171.76646419 190.14508453 169 189 Z M475.10199016 192.76892853 C474.54460645 193.32922508 473.98722274 193.88952164 473.41294861 194.46679688 C472.82406264 195.05482841 472.23517668 195.64285995 471.62844568 196.24871063 C469.63914899 198.23634916 467.65346719 200.22756119 465.66772461 202.21875 C464.2490906 203.63766583 462.83023685 205.05636199 461.41117859 206.47485352 C457.54548175 210.3402622 453.68288649 214.20875711 449.82081676 218.07778931 C445.78935079 222.1154858 441.75507269 226.15037047 437.72108459 230.18554688 C430.0763493 237.83339638 422.43416775 245.48379251 414.79288727 253.13509369 C406.09608158 261.84305775 397.3964528 270.54819905 388.69657886 279.25309753 C370.79456321 297.1655796 352.89611809 315.08162589 335 333 C336.62431703 337.09049667 339.55701454 339.83315082 342.62464905 342.87188721 C343.20551677 343.45516934 343.78638449 344.03845148 344.38485426 344.63940883 C346.33395186 346.59414569 348.29012096 348.5416476 350.24633789 350.48925781 C351.64442995 351.88842267 353.04208898 353.28802034 354.43934631 354.6880188 C358.23625342 358.48977667 362.0393867 362.28524972 365.84378743 366.07950687 C369.81844433 370.04539082 373.78783895 374.01653517 377.75791931 377.98699951 C384.4235055 384.65164896 391.09295533 391.31241201 397.76489258 397.97070312 C405.49017282 405.68024166 413.21019769 413.39501068 420.92724425 421.11279035 C428.34011296 428.52626828 435.75582955 435.9368902 443.17315483 443.34590912 C446.33541774 446.50463201 449.49682133 449.66421135 452.65757942 452.82444 C456.37418832 456.5400482 460.09332333 460.25310918 463.81447411 463.96416855 C465.18398755 465.33074858 466.55264314 466.6981889 467.92040253 468.06652451 C469.77874635 469.92535514 471.64011014 471.78110569 473.50233459 473.63604736 C474.05057217 474.18583354 474.59880975 474.73561972 475.16366059 475.30206609 C477.23353581 477.85491547 477.23353581 477.85491547 480 479 C480 383.3 480 287.6 480 189 C477.86598202 189 476.53165938 191.3449117 475.10199016 192.76892853 Z " fill="#3A5DAF" transform="translate(273,71)"/>
<path d="M0 0 C5.0130463 49.67879874 8.39309861 99.3960007 10.26821995 149.29236656 C10.37468472 152.11663642 10.48404657 154.94078503 10.59346771 157.76494169 C13.85594055 243.31962896 16.61576928 324.6984813 -45.19409311 392.76170802 C-57.00313023 405.47140741 -69.83291473 417.02753658 -83 428.3125 C-84.48745523 429.59314189 -84.48745523 429.59314189 -86.00496006 430.89965534 C-111.41860252 452.72315776 -137.91392705 472.74900564 -166 491 C-168.76285549 489.73527624 -170.81015212 488.44007156 -172.95694256 486.29473972 C-173.51466655 485.74223122 -174.07239055 485.18972272 -174.64701527 484.62047154 C-175.24945162 484.01357375 -175.85188796 483.40667596 -176.47257996 482.78138733 C-177.12049336 482.1365939 -177.76840677 481.49180048 -178.43595392 480.82746786 C-180.60947147 478.66193853 -182.77575755 476.48931724 -184.94213867 474.31665039 C-186.49732174 472.76417678 -188.0529301 471.2121291 -189.6089325 469.66047668 C-193.83646834 465.44207164 -198.05763752 461.21734871 -202.27744079 456.99121022 C-206.68891415 452.57468137 -211.10525595 448.16302517 -215.52082825 443.75059509 C-223.40988915 435.86540809 -231.29389252 427.97518151 -239.17592964 420.08297502 C-246.32565113 412.9243149 -253.48060458 405.7709192 -260.6394043 398.62133789 C-268.95061965 390.32081989 -277.25847491 382.0169576 -285.56138593 373.70813173 C-289.95737919 369.30901522 -294.35472491 364.91127354 -298.75557518 360.51701546 C-302.89111993 356.38723292 -307.02177031 352.25261751 -311.14863777 348.11416435 C-312.66711503 346.59303465 -314.1873115 345.07361902 -315.70931244 343.55601501 C-317.78031084 341.49045029 -319.84509973 339.41887538 -321.90837097 337.34559631 C-322.51749948 336.74092925 -323.12662799 336.13626218 -323.75421494 335.51327187 C-327.88584969 331.34245092 -327.88584969 331.34245092 -329 328 C-272.9 271.9 -216.8 215.8 -159 158 C-154.68417361 160.58949583 -151.5273751 163.18957331 -148.04582214 166.70021057 C-147.46576914 167.2771436 -146.88571613 167.85407662 -146.28808576 168.44849247 C-144.35028236 170.37833355 -142.4196885 172.31522651 -140.48901367 174.25219727 C-139.09954554 175.63895484 -137.70965241 177.02528669 -136.31936646 178.41122437 C-132.54856037 182.1729144 -128.78410593 185.94090129 -125.02102828 189.71032071 C-121.08555821 193.65085176 -117.14521379 197.58650375 -113.2056427 201.52293396 C-106.59385946 208.13107914 -99.98630378 214.74342953 -93.38110352 221.3581543 C-85.73501821 229.01513732 -78.08173618 236.66487039 -70.42470187 244.31090313 C-63.85622038 250.87032331 -57.29162611 257.43361466 -50.730295 264.00018734 C-46.80886616 267.92474052 -42.88608355 271.84791486 -38.95979881 275.76761055 C-35.27238899 279.44926387 -31.58986629 283.13573527 -27.91113663 286.82606125 C-26.55672073 288.18313227 -25.20058038 289.5384846 -23.84264183 290.89203072 C-21.99686969 292.73237982 -20.15730241 294.57870911 -18.31925964 296.42677307 C-17.77404653 296.96752474 -17.22883342 297.50827641 -16.6670987 298.06541449 C-13 301.77169922 -13 301.77169922 -13 304 C-12.34 304 -11.68 304 -11 304 C-11.00629289 303.38419781 -11.01258579 302.76839563 -11.01906937 302.13393277 C-11.3908273 265.61712345 -11.70477416 229.10024074 -11.94390089 192.58231343 C-11.97267813 188.19525364 -12.00193719 183.80819718 -12.03149414 179.42114258 C-12.03737017 178.54777786 -12.0432462 177.67441315 -12.04930029 176.77458284 C-12.14552935 162.64258499 -12.28076773 148.51121704 -12.43048616 134.37969621 C-12.58329976 119.87384483 -12.69404549 105.3681096 -12.76594049 90.86162931 C-12.81160687 81.91372434 -12.88987245 72.96733481 -13.01017658 64.02011696 C-13.08958532 57.88030765 -13.12803912 51.74108186 -13.13468494 45.60076632 C-13.1397144 42.06020483 -13.16241041 38.52215231 -13.23388481 34.98225594 C-13.68890285 11.5255872 -13.68890285 11.5255872 -8.03248912 5.16805869 C-2.44739402 0 -2.44739402 0 0 0 Z " fill="#010101" transform="translate(765,247)"/>
<path d="M0 0 C4.33097437 1.66549099 7.24138718 4.95432321 10.44807434 8.17391968 C11.09331533 8.81392398 11.73855631 9.45392829 12.40335006 10.11332667 C14.56772446 12.26267925 16.72487066 14.41914164 18.88208008 16.57568359 C20.43067805 18.11666184 21.9796788 19.65723542 23.52905273 21.19743347 C27.73817267 25.38458976 31.94068367 29.57831856 36.14137483 33.77392912 C38.76357927 36.39249379 41.38707799 39.00975458 44.01102257 41.62657547 C53.63031712 51.22010785 63.24279741 60.82042369 72.85107412 70.42498989 C80.43691043 78.00728008 88.03442946 85.57774598 95.63714389 93.14310889 C103.44035667 100.90829039 111.23400324 108.68296419 119.01859587 116.46681273 C123.39057651 120.83799811 127.766495 125.20506278 132.15223122 129.56245041 C136.27292183 133.65709863 140.38163345 137.76338952 144.48125458 141.87912941 C145.99149063 143.39119069 147.5060472 144.89895019 149.0250988 146.40215492 C151.09071029 148.44751725 153.14048823 150.50751263 155.18684387 152.57211304 C156.10343874 153.46890795 156.10343874 153.46890795 157.03855067 154.38381994 C158.68229389 156.06146812 158.68229389 156.06146812 161 159 C160.55258982 162.64435623 159.07042581 164.26068832 156.4375 166.75 C155.79683594 167.36359375 155.15617187 167.9771875 154.49609375 168.609375 C154.00238281 169.06828125 153.50867188 169.5271875 153 170 C148.70601488 167.69366022 145.44484599 164.72243261 142.04582214 161.28633118 C141.46576914 160.70798702 140.88571613 160.12964286 140.28808576 159.53377312 C138.35027994 157.59925529 136.41969801 155.65768775 134.48901367 153.71606445 C133.09956092 152.32604744 131.70966739 150.93647091 130.31936646 149.54730225 C126.54876238 145.7772721 122.78435752 142.00110635 119.02102828 138.22381616 C115.08614324 134.27643048 111.14559551 130.33470605 107.2056427 126.39237976 C99.74673293 118.92725327 92.29293617 111.45704306 84.84095889 103.98499697 C76.35643846 95.47812354 67.86623979 86.97692694 59.3755573 78.47620451 C41.91070872 60.99044958 24.45300984 43.49757095 7 26 C7.00480017 26.91564663 7.00480017 26.91564663 7.00969732 27.84979117 C7.19777551 64.06655463 7.31254554 100.282866 7.33273234 136.50012604 C7.33522181 140.85327457 7.33832088 145.20642247 7.34179688 149.55957031 C7.34247861 150.42616687 7.34316034 151.29276342 7.34386273 152.18562047 C7.35633897 166.19911697 7.41814518 180.21198064 7.49833374 194.22523458 C7.5795731 208.61500845 7.60744879 223.00418012 7.58627188 237.39417112 C7.57488179 246.26692849 7.60461062 255.1375592 7.6877351 264.00994276 C7.74081935 270.10250614 7.74184717 276.19372649 7.70284949 282.28638996 C7.68188628 285.79731719 7.6829979 289.30437297 7.74625206 292.81487846 C8.09152309 316.04657839 8.09152309 316.04657839 1.06957304 323.96546781 C-1.83397408 326.78042533 -4.4845544 328.95968452 -8 331 C-12.47760308 330.49645965 -14.88744203 327.52180466 -17.90985107 324.45091248 C-18.49721676 323.86611006 -19.08458245 323.28130765 -19.6897471 322.67878395 C-21.66072022 320.7127615 -23.62076353 318.73619071 -25.58105469 316.75952148 C-26.98984948 315.3498807 -28.39930476 313.94089974 -29.80937195 312.53253174 C-33.64014032 308.70262583 -37.46157404 304.86352554 -41.28143597 301.02274585 C-45.27327405 297.01218286 -49.27358159 293.01008628 -53.27301025 289.00709534 C-60.84729316 281.42347966 -68.41389482 273.83224748 -75.97778726 266.23826987 C-84.58849327 257.59405822 -93.20769626 248.95834049 -101.82763433 240.32333648 C-119.56124752 222.55834636 -137.28412818 204.78268122 -155 187 C-154.99831877 187.61406594 -154.99663753 188.22813187 -154.99490535 188.86080587 C-154.89649351 225.26944246 -154.85023153 261.67779921 -154.87152898 298.08656963 C-154.87404214 302.45989393 -154.87612036 306.83321833 -154.87792969 311.20654297 C-154.8782972 312.07717938 -154.87866471 312.94781579 -154.87904336 313.84483512 C-154.88395433 327.93522735 -154.85364418 342.02533428 -154.81027745 356.11565118 C-154.76655212 370.57769953 -154.76076999 385.0394056 -154.7900821 399.50149214 C-154.80697227 408.42295247 -154.79440021 417.34336633 -154.74393077 426.26470406 C-154.71214157 432.38556853 -154.71726718 438.505715 -154.75115602 444.62656526 C-154.76961803 448.15651831 -154.77205858 451.68452432 -154.73056984 455.21432495 C-154.46762152 479.03893351 -154.46762152 479.03893351 -161.01419067 485.74624634 C-165.37228041 489 -165.37228041 489 -167 489 C-172.04544342 439.83482935 -175.44439626 390.63023849 -177.33007669 341.24235713 C-177.43718178 338.44580884 -177.54720292 335.64938454 -177.65728378 332.852952 C-180.96705821 247.42414091 -183.25078158 167.0406534 -121.53365332 99.17435485 C-109.6365373 86.38361795 -96.74417179 74.75473776 -83.5 63.375 C-82.0035842 62.08348849 -82.0035842 62.08348849 -80.47693777 60.76588583 C-54.89495157 38.74302153 -28.23337409 18.49663068 0 0 Z M-11.89800984 28.76892853 C-12.45539355 29.32922508 -13.01277726 29.88952164 -13.58705139 30.46679688 C-14.17593736 31.05482841 -14.76482332 31.64285995 -15.37155432 32.24871063 C-17.36085101 34.23634916 -19.34653281 36.22756119 -21.33227539 38.21875 C-22.7509094 39.63766583 -24.16976315 41.05636199 -25.58882141 42.47485352 C-29.45451825 46.3402622 -33.31711351 50.20875711 -37.17918324 54.07778931 C-41.21064921 58.1154858 -45.24492731 62.15037047 -49.27891541 66.18554688 C-56.9236507 73.83339638 -64.56583225 81.48379251 -72.20711273 89.13509369 C-80.90391842 97.84305775 -89.6035472 106.54819905 -98.30342114 115.25309753 C-116.20543679 133.1655796 -134.10388191 151.08162589 -152 169 C-151.0550036 170.11157875 -150.10869701 171.22204372 -149.16184998 172.33204651 C-148.37160258 173.25981321 -148.37160258 173.25981321 -147.56539059 174.20632267 C-145.43033796 176.65273798 -143.15902243 178.93518537 -140.84765625 181.21484375 C-140.38443466 181.67427872 -139.92121307 182.13371368 -139.44395447 182.60707092 C-137.49913834 184.53583973 -135.5483152 186.45848735 -133.59790039 188.3815918 C-132.1581422 189.80299374 -130.72161228 191.22760588 -129.28515625 192.65234375 C-128.43832275 193.48757568 -127.59148926 194.32280762 -126.71899414 195.18334961 C-124.72470959 197.24926151 -122.86178337 199.31339688 -121.00410461 201.49391174 C-116.31338851 206.86928225 -111.26305543 211.87712635 -106.21533203 216.9140625 C-105.14183774 217.98891446 -104.06855572 219.06397845 -102.99546814 220.13923645 C-100.10360349 223.03562815 -97.20862348 225.9288865 -94.31290293 228.82142258 C-91.27829641 231.85348552 -88.24614374 234.88800083 -85.21359253 237.92211914 C-80.12986776 243.00765784 -75.04404959 248.09109583 -69.95703125 253.17333984 C-64.06956923 259.05534022 -58.18574593 264.94096205 -52.30375969 270.82843781 C-47.24900601 275.88772036 -42.19231777 280.94506315 -37.13398826 286.00077057 C-34.11433022 289.01886721 -31.09535772 292.03764124 -28.07812881 295.0581665 C-25.24860594 297.89056549 -22.41667214 300.72053108 -19.58281136 303.54858971 C-18.54063913 304.58943381 -17.49932779 305.63114068 -16.45891762 306.67374611 C-15.04531726 308.09005537 -13.62836544 309.50301727 -12.21121216 310.91577148 C-11.4174222 311.70918442 -10.62363224 312.50259735 -9.80578804 313.3200531 C-8.28903915 315.11352254 -8.28903915 315.11352254 -7 315 C-7 219.3 -7 123.6 -7 25 C-9.13401798 25 -10.46834062 27.3449117 -11.89800984 28.76892853 Z " fill="#0B0B0B" transform="translate(274,73)"/>
<path d="M0 0 C0.33 0.99 0.66 1.98 1 3 C-160.7 164.7 -322.4 326.4 -489 493 C-489 490 -489 490 -487.27734375 488.01953125 C-486.11912109 486.92705078 -486.11912109 486.92705078 -484.9375 485.8125 C-482.19426972 483.2099482 -479.61574224 480.57412136 -477.17918396 477.6877594 C-471.59130261 471.27831327 -465.49525623 465.35582948 -459.48071289 459.35131836 C-458.11316103 457.98240962 -456.74582159 456.61328864 -455.37867737 455.24397278 C-451.6826566 451.54341175 -447.98350199 447.84599858 -444.28362203 444.14929652 C-440.40213335 440.27034909 -436.52309592 436.38895157 -432.6436615 432.50794983 C-426.12987956 425.99235134 -419.61399834 419.47885779 -413.09692383 412.96655273 C-405.57480058 405.44987111 -398.05628644 397.92959395 -390.53963667 390.40743917 C-384.07247964 383.93573636 -377.60336611 377.46599411 -371.13262933 370.9978705 C-367.2738226 367.14061848 -363.41568441 363.28270426 -359.55931282 359.4230175 C-355.93280767 355.79361235 -352.30384322 352.1666839 -348.67300987 348.54160881 C-347.34513609 347.21505123 -346.01810128 345.88765319 -344.69199371 344.55932999 C-332.5438072 332.39272755 -332.5438072 332.39272755 -326.61806393 327.39165592 C-322.44185616 323.79980508 -318.67359541 319.82904 -315.12458801 315.62387085 C-309.58446173 309.27056858 -303.53518354 303.40424025 -297.5690918 297.45556641 C-296.21150072 296.09825779 -294.85413057 294.74072818 -293.4969635 293.38299561 C-289.83017441 289.71592078 -286.16032015 286.05192763 -282.48989081 282.38849688 C-278.64533668 278.5502159 -274.80363521 274.70908183 -270.96162415 270.86825562 C-263.69180534 263.6015394 -256.41944258 256.3373747 -249.14615232 249.07413328 C-240.87067034 240.8098368 -232.59803407 232.54269425 -224.32563531 224.27531171 C-208.4989818 208.45837046 -192.66947127 192.64429175 -176.83741778 176.83275568 C-174.89113912 174.88897564 -172.94502982 172.94502982 -171 171 C-169.989375 170.175 -168.97875 169.35 -167.9375 168.5 C-165.10820844 166.08706831 -162.64777266 163.54480395 -160.20704651 160.7414856 C-153.67482129 153.42490061 -146.69220775 146.56062833 -139.74975586 139.63623047 C-138.22113915 138.1078963 -136.69274353 136.57934098 -135.16455078 135.05058289 C-131.04141759 130.92716432 -126.91522174 126.80682315 -122.78844523 122.6870513 C-118.46650242 118.37138532 -114.14741588 114.05286269 -109.82801819 109.73464966 C-101.6598606 101.56959266 -93.48915858 93.40708681 -85.3175264 85.24550736 C-76.00958567 75.94876737 -66.70450474 66.64916725 -57.39965618 57.34933257 C-38.26960507 38.22971703 -19.13598739 19.11367404 0 0 Z " fill="#697FB5" transform="translate(597,71)"/>
<path d="M0 0 C0.99 0.99 0.99 0.99 2 2 C1.1402485 2.56201237 0.280497 3.12402473 -0.60530758 3.70306778 C-29.03137196 22.38764431 -55.68442143 43.03574809 -81.4375 65.25 C-82.92695751 66.52903757 -82.92695751 66.52903757 -84.44650507 67.83391428 C-137.18668689 113.3151901 -169.67176385 159.3500021 -175.11143494 230.17654419 C-177.65692332 266.30023891 -177.33695871 302.45951424 -176.03845006 338.62451816 C-175.93720997 341.44558182 -175.83890253 344.26673711 -175.74091482 347.08791542 C-174.02712555 395.85026448 -170.78390023 444.44395736 -166 493 C-166.33 493 -166.66 493 -167 493 C-167.781056 452.1773325 -168.37873705 411.35565123 -168.7362212 370.52698336 C-168.77873679 365.68887517 -168.82274457 360.85078164 -168.86767578 356.01269531 C-168.87659434 355.04966407 -168.88551289 354.08663282 -168.8947017 353.09441881 C-169.04199156 337.57278404 -169.30967078 322.0555032 -169.62319507 306.53643747 C-169.9430373 290.56947086 -170.13038369 274.6047568 -170.19900882 258.63471925 C-170.24117722 249.68019416 -170.34195984 240.73476125 -170.59482193 231.78349686 C-172.26908647 170.78565783 -172.26908647 170.78565783 -157.23236597 153.58415401 C-151.09213368 147.17306903 -144.25337345 141.74125436 -136.86308098 136.84840965 C-133.18298159 134.32246393 -130.47434003 131.35471482 -127.62442875 127.93953288 C-125.34696102 125.22028555 -122.88473963 122.76197765 -120.37477112 120.2545166 C-119.85426255 119.73315361 -119.33375398 119.21179061 -118.79747242 118.67462873 C-117.08031063 116.95584062 -115.35963822 115.2406137 -113.63891602 113.52539062 C-112.39630498 112.2830621 -111.15391497 111.04051246 -109.91172791 109.79776001 C-106.55911221 106.44485885 -103.2034348 103.09503751 -99.84717679 99.74578285 C-96.33267379 96.23755526 -92.82102564 92.72647234 -89.30906677 89.21569824 C-82.66727018 82.57700266 -76.02292987 75.94085909 -69.37765974 69.3056407 C-61.80854808 61.74772847 -54.24229503 54.18695721 -46.67627442 46.62595081 C-31.12068298 31.08079589 -15.56152577 15.53921419 0 0 Z " fill="#4B4B4B" transform="translate(273,71)"/>
</svg>
